<?xml version="1.0" encoding="utf-8"?>
<!-- Generator: Adobe Illustrator 16.0.0, SVG Export Plug-In . SVG Version: 6.00 Build 0)  -->
<!DOCTYPE svg PUBLIC "-//W3C//DTD SVG 1.1//EN" "http://www.w3.org/Graphics/SVG/1.1/DTD/svg11.dtd">
<svg version="1.1" id="Layer_1" xmlns="http://www.w3.org/2000/svg" xmlns:xlink="http://www.w3.org/1999/xlink" x="0px" y="0px"
	 width="425.947px" height="352.29px" viewBox="98.299 0.082 425.947 352.29" enable-background="new 98.299 0.082 425.947 352.29"
	 xml:space="preserve">
<path opacity="0.5" fill="#3E3C55" enable-background="new    " d="M307.945,35.444l0.092-5.548v-0.131
	c0.021-0.677,0.548-1.223,1.255-1.289l4.818-0.437c0.075-0.015,0.151-0.029,0.228-0.044c0.526-0.131,0.914-0.546,0.982-1.07
	c0.457-3.058,1.553-5.984,3.196-8.627c0.062-0.102,0.106-0.219,0.138-0.35c0.137-0.437,0-0.917-0.365-1.267l-2.877-2.708
	c-0.366-0.372-0.503-0.896-0.343-1.354c0.068-0.153,0.137-0.284,0.228-0.415l3.699-4.434c0.434-0.546,1.256-0.677,1.873-0.284
	l4.498,2.84c0.434,0.284,1.004,0.284,1.461,0.021c0.662-0.371,1.324-0.721,2.032-1.048c1.302-0.59,2.648-1.07,3.996-1.419h0.022
	c0.548-0.153,0.959-0.59,1.027-1.158l0.548-5.199l0.022-0.262c0.068-0.655,0.662-1.18,1.37-1.18l5.937,0.087
	c0.73,0,1.325,0.524,1.393,1.223l0.503,5.133c0.068,0.568,0.502,1.048,1.073,1.18c2.443,0.546,4.772,1.463,6.918,2.708
	c0.548,0.306,1.256,0.219,1.69-0.218l3.379-3.254c0.502-0.502,1.323-0.546,1.895-0.109l4.658,3.539
	c0.548,0.415,0.662,1.158,0.274,1.704l-3.472,5.067c-0.297,0.415-0.318,0.961-0.045,1.42c0.335,0.539,0.647,1.099,0.937,1.682
	c0.532,1.106,0.974,2.221,1.323,3.342c0.16,0.502,0.617,0.874,1.188,0.917l6.531,0.633c0.707,0.065,1.255,0.655,1.232,1.333
	l-0.068,5.701c-0.023,0.59-0.457,1.114-1.051,1.267c-0.068,0-0.137,0.022-0.206,0.022l-5.959,0.546
	c-0.548,0.043-1.027,0.393-1.187,0.896c-0.016,0.043-0.031,0.094-0.046,0.153c-0.023,0.131-0.046,0.262-0.091,0.393
	c-0.39,1.594-0.982,3.167-1.713,4.652c-0.251,0.502-0.138,1.114,0.273,1.507l3.608,3.386c0.502,0.48,0.548,1.267,0.113,1.813
	l-0.821,0.983l-2.854,3.451c-0.457,0.546-1.256,0.655-1.872,0.284l-4.406-2.796c-0.48-0.306-1.073-0.284-1.554,0.022
	c-1.187,0.83-2.488,1.594-3.881,2.228c-1.051,0.459-2.124,0.852-3.174,1.18l-0.114,1.092l-0.479,4.478
	c-0.045,0.546-0.456,1.004-1.004,1.136c-0.122,0.029-0.244,0.037-0.366,0.022l-5.959-0.065c-0.708,0-1.302-0.524-1.37-1.202
	l-0.343-3.495c-0.045-0.59-0.525-1.092-1.142-1.18c-2.557-0.393-5.022-1.136-7.307-2.25c-0.548-0.262-1.188-0.175-1.598,0.24
	l-4.247,4.128c-0.479,0.458-1.257,0.502-1.781,0.109l-4.703-3.582c-0.571-0.415-0.685-1.179-0.297-1.748l3.63-5.242
	c0.32-0.459,0.297-1.027-0.023-1.485c-0.685-0.961-1.301-1.988-1.849-3.08c-0.289-0.583-0.548-1.18-0.776-1.791
	c-0.183-0.459-0.64-0.787-1.164-0.852l-6.257-0.59C308.493,36.733,307.945,36.143,307.945,35.444L307.945,35.444z M332.308,19.587
	c-1.37,0.808-2.648,1.878-3.79,3.254c-0.229,0.284-0.479,0.633-0.708,1.005c-0.981,1.616-1.689,3.866-1.713,5.504
	c-0.091,12.516,15.116,17.845,23.473,8.453c0.137-0.16,0.273-0.32,0.411-0.48c1.232-1.507,2.283-4.325,2.328-6.247
	c0-1.004-0.067-1.965-0.228-2.861C350.414,19.128,340.071,15,332.308,19.587L332.308,19.587z"/>
<path fill="#2E2D40" d="M380.121,21.115l0.571-3.582l0.022-0.087c0.068-0.437,0.479-0.743,0.937-0.721l3.15,0.131
	c0.062,0,0.114,0,0.16,0c0.342-0.043,0.639-0.284,0.73-0.611c0.594-1.922,1.575-3.735,2.899-5.286
	c0.046-0.073,0.084-0.146,0.114-0.218c0.137-0.284,0.092-0.611-0.114-0.852l-1.598-2.01c-0.206-0.262-0.229-0.611-0.092-0.917
	c0.046-0.087,0.114-0.167,0.206-0.24l2.785-2.534c0.343-0.328,0.891-0.328,1.256-0.021l2.626,2.228
	c0.251,0.219,0.616,0.284,0.936,0.153c0.472-0.189,0.944-0.357,1.416-0.502c0.913-0.262,1.827-0.452,2.74-0.568
	c0.388-0.044,0.685-0.306,0.775-0.655l0.846-3.32l0.046-0.153c0.114-0.437,0.548-0.721,1.004-0.655l3.836,0.568
	c0.457,0.087,0.799,0.48,0.776,0.917l-0.159,3.364c-0.023,0.393,0.205,0.721,0.569,0.852c1.53,0.59,2.946,1.376,4.226,2.359
	c0.319,0.262,0.776,0.262,1.118,0.021l2.488-1.813c0.365-0.284,0.892-0.24,1.233,0.087l2.671,2.708
	c0.32,0.306,0.32,0.808,0.023,1.136l-2.74,2.949c-0.251,0.262-0.296,0.611-0.182,0.917c0.167,0.378,0.318,0.772,0.455,1.179
	c0.244,0.757,0.428,1.515,0.549,2.272c0.046,0.349,0.297,0.633,0.663,0.699l4.154,0.983c0.457,0.109,0.754,0.524,0.686,0.961
	l-0.595,3.691c-0.067,0.372-0.41,0.677-0.799,0.721c-0.045,0-0.091,0-0.137,0l-3.904-0.175c-0.364-0.021-0.708,0.175-0.868,0.48
	c-0.015,0.029-0.022,0.059-0.022,0.087c-0.045,0.087-0.068,0.175-0.114,0.262c-0.411,0.983-0.936,1.944-1.552,2.861
	c-0.206,0.284-0.183,0.677,0.045,0.983l1.987,2.512c0.297,0.35,0.251,0.874-0.093,1.18l-0.615,0.568l-2.192,1.966
	c-0.343,0.306-0.868,0.328-1.233,0.022l-2.579-2.206c-0.274-0.24-0.662-0.262-1.006-0.109c-0.845,0.437-1.758,0.808-2.717,1.092
	c-0.729,0.218-1.461,0.371-2.169,0.48l-0.183,0.699l-0.73,2.861c-0.092,0.35-0.411,0.611-0.776,0.633
	c-0.076,0.015-0.152,0.015-0.229,0l-3.858-0.568c-0.434-0.065-0.776-0.458-0.753-0.896l0.113-2.293
	c0.023-0.393-0.251-0.764-0.639-0.874c-1.6-0.459-3.128-1.158-4.498-2.075c-0.32-0.218-0.754-0.218-1.051,0l-3.151,2.293
	c-0.342,0.262-0.844,0.219-1.141-0.087l-2.718-2.73c-0.319-0.306-0.319-0.808-0.022-1.136l2.854-3.08
	c0.251-0.262,0.298-0.633,0.138-0.961c-0.351-0.684-0.647-1.405-0.892-2.162c-0.136-0.408-0.251-0.815-0.342-1.223
	c-0.091-0.306-0.342-0.568-0.662-0.634l-3.996-0.939C380.349,21.989,380.053,21.552,380.121,21.115L380.121,21.115z M397.383,12.99
	c-0.959,0.415-1.895,0.982-2.763,1.769c-0.183,0.153-0.365,0.371-0.548,0.59c-0.799,0.961-1.484,2.359-1.645,3.407
	c-1.278,8.082,8.061,12.865,14.362,7.536c0.106-0.087,0.213-0.182,0.319-0.284c0.937-0.852,1.873-2.599,2.101-3.822
	c0.107-0.655,0.146-1.281,0.114-1.878C409.119,14.3,402.84,10.697,397.383,12.99L397.383,12.99z"/>
<path fill="#2E2D40" d="M348.061,99.922l0.298-8.758v-0.219c0.045-1.07,0.913-1.922,2.009-2.009l7.626-0.568
	c0.137-0.015,0.259-0.037,0.366-0.065c0.821-0.197,1.461-0.852,1.598-1.66c0.799-4.805,2.58-9.414,5.274-13.542
	c0.106-0.175,0.183-0.357,0.229-0.546c0.205-0.699,0-1.463-0.526-2.01l-4.498-4.346c-0.569-0.59-0.753-1.442-0.479-2.163
	c0.068-0.218,0.205-0.437,0.365-0.633l5.937-6.924c0.73-0.852,2.032-1.049,2.991-0.415l6.987,4.608
	c0.707,0.459,1.598,0.48,2.329,0.087c1.05-0.59,2.123-1.114,3.219-1.594c2.101-0.917,4.224-1.617,6.37-2.141l0.022-0.022
	c0.892-0.218,1.554-0.917,1.645-1.791l1.005-8.191l0.067-0.415c0.114-1.07,1.073-1.856,2.192-1.834l9.362,0.284
	c1.141,0.022,2.077,0.874,2.169,1.966l0.662,8.125c0.067,0.896,0.753,1.66,1.667,1.856c3.813,0.961,7.488,2.446,10.845,4.456
	c0.845,0.524,1.964,0.393,2.672-0.284l5.411-5.067c0.845-0.764,2.123-0.808,2.991-0.109l7.261,5.679
	c0.868,0.677,1.027,1.878,0.411,2.73l-5.64,7.885c-0.479,0.677-0.525,1.551-0.114,2.25c0.502,0.874,0.974,1.777,1.416,2.708
	c0.845,1.748,1.507,3.517,2.032,5.286c0.228,0.808,0.959,1.42,1.825,1.507l10.299,1.136c1.142,0.131,1.964,1.048,1.94,2.141
	l-0.273,8.999c-0.047,0.939-0.755,1.747-1.714,1.965c-0.091,0.022-0.204,0.044-0.296,0.044l-9.43,0.699
	c-0.868,0.065-1.622,0.612-1.918,1.397c-0.023,0.088-0.046,0.153-0.046,0.219c-0.068,0.218-0.114,0.415-0.183,0.633
	c-0.662,2.534-1.621,4.98-2.831,7.317c-0.411,0.787-0.251,1.726,0.41,2.359l5.595,5.461c0.775,0.764,0.845,2.009,0.113,2.839
	l-1.323,1.551l-4.612,5.373c-0.708,0.83-1.987,1.005-2.923,0.393l-6.918-4.543c-0.731-0.48-1.69-0.459-2.42,0.022
	c-1.918,1.289-3.996,2.446-6.234,3.407c-1.644,0.721-3.333,1.311-5.022,1.791l-0.206,1.726l-0.867,7.055
	c-0.091,0.874-0.776,1.572-1.645,1.769c-0.183,0.044-0.364,0.044-0.548,0.044l-9.43-0.262c-1.119-0.044-2.032-0.874-2.123-1.922
	l-0.435-5.548c-0.092-0.94-0.821-1.748-1.804-1.901c-4.019-0.655-7.877-1.9-11.462-3.713c-0.845-0.437-1.872-0.306-2.512,0.328
	l-6.827,6.421c-0.776,0.699-1.986,0.765-2.808,0.11l-7.353-5.767c-0.868-0.677-1.051-1.878-0.411-2.752l5.868-8.19
	c0.525-0.699,0.525-1.639,0.023-2.359c-1.052-1.529-1.987-3.167-2.832-4.915c-0.441-0.932-0.837-1.871-1.188-2.817
	c-0.273-0.743-0.981-1.267-1.804-1.377l-9.864-1.092C348.906,101.953,348.038,101.014,348.061,99.922L348.061,99.922z
	 M386.968,75.481c-2.169,1.245-4.224,2.905-6.051,5.023c-0.411,0.459-0.799,0.983-1.164,1.573c-1.598,2.556-2.786,6.072-2.854,8.649
	c-0.525,19.768,23.357,28.569,36.828,13.936c0.214-0.233,0.427-0.481,0.64-0.743c2.01-2.337,3.745-6.771,3.858-9.785
	c0.047-1.594-0.046-3.102-0.297-4.543C415.555,75.219,399.366,68.404,386.968,75.481L386.968,75.481z"/>
<path fill="#656280" d="M214.49,77.141c-7.74-5.897-21.988-10.571-16.919-17.364c3.379-4.514,7.368-5.715,11.965-3.604
	c23.426,11.227,33.548,32.799,30.367,64.718C238.236,102.608,222.231,83.06,214.49,77.141L214.49,77.141z"/>
<path fill="#CDDFF9" d="M232.439,66.547c-4.567-5.591-14.088-11.379-9.156-15.486c3.288-2.723,6.408-2.934,9.361-0.633
	c15.024,12.101,18.464,29.508,10.321,52.224C245.088,89.066,237.005,72.139,232.439,66.547L232.439,66.547z"/>
<path fill="#52516B" d="M479.898,330.42c-5.023-4.063-28.633-36.191-32.331-32.369c-3.699,3.801,5.64,30.076,18.586,39.359
	c-29.394,6.902-47.889,4.164-55.484-8.213c-11.37-18.545-4.224-31.672-11.462-43.008c-7.26-11.357-16.211-17.123-15.161-9.653
	c1.028,7.448,16.783,24.245,15.642,38.245c-1.143,14.001-0.595,24.311-16.212,10.572c-15.617-13.739-35.322-44.144-26.737-58.887
	c0.365-0.641,0.724-1.252,1.074-1.835c-0.549,0.728-0.906,1.341-1.074,1.835c-4.064-1.726-16.074-0.218-25.024,1.268
	c0,0-0.008,0-0.022,0c-1.461,0.349-3.539,0.721-6.439,1.156c-1.256,0.241-2.283,0.438-3.014,0.59c-0.016,0-0.03,0-0.046,0
	c0,0-0.008,0.008-0.022,0.022c-1.127,0.263-2.268,0.582-3.425,0.961l-2.558-3.385c4.521-1.106,8.312-1.72,11.37-1.835
	c15.587-1.967,28.168-6.465,37.743-13.499c-3.516-29.021,6.561-44.375,30.23-46.063c15.906,0.756,28.274,4.375,37.104,10.854
	c-27.779,12.479-40.293,21.121-37.537,25.927c2.755,4.819,17.702-3.204,44.844-24.07c27.384,14.213,43.868,25.883,49.456,35.012
	c-34.082,3-49.167,6.51-45.256,10.529c3.897,4.004,23.655,5.234,59.274,3.691c21.174,19.337,26.205,35.573,15.093,48.707
	C501.864,336.012,484.944,334.482,479.898,330.42L479.898,330.42z"/>
<path fill="#52516B" d="M137.407,310.348c-7.23-8.533-3.958-19.09,9.818-31.671c23.152,1.005,36,0.204,38.542-2.403
	c2.542-2.605-7.269-4.885-29.432-6.836c3.638-5.94,14.354-13.535,32.149-22.78c17.657,13.571,27.384,18.791,29.18,15.659
	c1.796-3.115-6.34-8.735-24.408-16.861c5.738-4.223,13.776-6.574,24.111-7.055c15.405,1.092,21.958,11.074,19.659,29.945
	c6.226,4.572,14.408,7.5,24.545,8.78h0.023c1.979,0.088,4.438,0.488,7.375,1.202l-1.644,2.206c-0.761-0.248-1.507-0.459-2.237-0.634
	c0,0-0.008,0-0.023,0c0-0.015-0.008-0.022-0.023-0.022c-0.479-0.087-1.142-0.218-1.964-0.371c-1.872-0.284-3.242-0.524-4.178-0.743
	c-0.015,0-0.023,0-0.023,0c-5.822-0.981-13.631-1.943-16.257-0.83c-0.122-0.334-0.357-0.734-0.708-1.201
	c0.229,0.379,0.465,0.779,0.708,1.201c5.571,9.567-7.238,29.356-17.398,38.289c-10.161,8.935-9.796,2.229-10.549-6.88
	c-0.754-9.108,9.498-20.007,10.183-24.878c0.685-4.849-5.137-1.092-9.863,6.291c-4.727,7.36-0.069,15.901-7.467,27.979
	c-4.932,8.039-16.957,9.815-36.075,5.33c8.425-6.051,14.476-23.131,12.078-25.599c-2.397-2.468-17.741,18.413-21.029,21.056
	C159.235,322.164,148.23,323.146,137.407,310.348L137.407,310.348z"/>
<path fill="#52516B" d="M126.197,88.563c4.43-10.134,15.694-12.384,33.793-6.749c10.061,19.993,16.896,30.44,20.504,31.344
	c3.592,0.903,1.035-8.446-7.672-28.045c7.2,0.248,19.271,5.679,36.213,16.294c-4.11,21.303-4.301,31.969-0.571,31.998
	c3.714,0.029,5.031-9.494,3.95-28.569c6.591,2.839,12.566,8.497,17.924,16.971c6.286,13.499,0.205,23.75-18.244,30.754
	c-1.263,7.426-0.076,15.711,3.563,24.856c0.868,1.704,1.667,3.968,2.398,6.793l-2.809-0.351c-0.137-0.756-0.297-1.484-0.479-2.184
	c0-0.014,0-0.021,0-0.021c-0.016,0-0.023-0.008-0.023-0.022c-0.137-0.437-0.32-1.069-0.571-1.834
	c-0.639-1.726-1.05-2.971-1.301-3.888c-1.873-5.373-4.681-12.406-6.964-14.088c0.258-0.262,0.517-0.648,0.776-1.158
	c-0.244,0.364-0.502,0.75-0.776,1.158c-6.165,9.239-30.459,7.819-43.497,3.494c-13.037-4.324-6.69-7.186,1.347-12.144
	c8.015-4.936,22.924-1.485,27.719-3.21c4.772-1.726-1.438-4.871-10.457-5.33c-9.019-0.48-14.682,7.492-29.295,6.968
	c-9.742-0.335-17.078-9.618-22.01-27.849c9.567,4.216,28.152,1.223,29.294-1.966c1.142-3.189-25.367-6.225-29.34-7.732
	C125.672,112.546,119.553,103.766,126.197,88.563z"/>
<path fill="#1A1A23" d="M436.949,352.372c0-2.228,0.168-3.713,0.503-4.456c0.334-0.742,1.11-2.621,2.328-5.635h7.146
	c0.883,2.752,1.355,4.58,1.416,5.482c0.045,0.902,0.045,2.439,0,4.608H436.949z"/>
<path fill="#1A1A23" d="M470.925,352.372c-0.046-2.169-0.046-3.706,0-4.608c0.062-0.902,0.533-2.73,1.415-5.482h7.147
	c1.218,3.014,1.994,4.893,2.329,5.635c0.335,0.743,0.502,2.229,0.502,4.456H470.925z"/>
<path fill="#FFB27D" d="M466.152,161.843c-0.745,2.461-0.403,7.026,1.027,13.695l7.078,9.349l-29.705-4.238l7.9-5.263
	c0.654-2.228,1.064-5.825,1.232-10.79C462.743,160.3,466.898,159.383,466.152,161.843L466.152,161.843z"/>
<path fill="#ED985F" d="M465.859,165.994c-0.67,3.189-2.481,4.827-5.435,4.915c-4.43,0.109-6.759-5.286-6.759-5.286L465.859,165.994
	z"/>
<path fill="#2E2D40" d="M451.015,161.232c-0.959-4.543-1.765-7.506-2.42-8.89c-1.005-2.053-1.827-11.27,9.226-11.751
	c2.815,0.321,5,0.03,6.553-0.873c0,0.903-0.198,1.514-0.594,1.835c2.557-0.598,4.833,0.167,6.827,2.293
	c2.99,3.189-1.987,14.306-1.759,16.927L451.015,161.232z"/>
<path fill="#FFB27D" d="M459.921,168.811c-3.197-0.043-9.11-4.128-9.11-9.195v-7.885c0-1.835,1.348-3.364,2.991-3.364h12.238
	c1.644,0,2.991,1.529,2.991,3.364v7.448C469.031,164.487,463.597,168.877,459.921,168.811L459.921,168.811z"/>
<path fill="#2E2D40" d="M450.81,148.127c0.913-2.184,19.157-2.25,17.901,1.201c-1.256,3.451-10.023,0.415-13.951,1.158
	c-2.618,0.48-3.935,2.301-3.95,5.46C450.201,152.204,450.201,149.598,450.81,148.127z"/>
<path fill="#2E2D40" d="M464.509,238.094c-5.19,30.375-7.771,48.963-7.74,55.764c0.03,6.377-2.321,22.984-7.056,49.822
	c-4.323,2.096-8.478,2.096-12.466,0c-1.249-19.324-1.256-35.931-0.023-49.822c1.248-13.892,1.461-33.01,0.64-57.357L464.509,238.094
	z"/>
<path fill="#2E2D40" d="M482.067,343.678c-3.988,2.098-8.145,2.098-12.468,0c-4.733-26.836-7.085-43.443-7.055-49.82
	c0.023-4.303-1.347-14.918-2.945-25.752c-1.462-9.873-3.06-19.877-4.795-30.012l27.673-1.638
	c-1.521,24.376-1.658,43.509-0.41,57.401C483.315,307.748,483.315,324.355,482.067,343.678L482.067,343.678z"/>
<path fill="#F17B1C" d="M482.159,242.594c-7.87,1.456-15.391,2.184-22.56,2.184c-4.703,0-9.817-0.502-13.859-1.026
	c-2.998-0.378-5.571-0.765-7.717-1.157c-1.599,0.131-1.927-3.568-0.982-11.096c1.073-8.584,0.731-16.338,0.502-24.311
	c-0.021-0.896-0.021-1.943,0.046-3.102c0.457-9.305,3.402-26.057,5.64-26.953c2.223-0.786,5.298-1.369,9.225-1.747
	c0,0.109,3.402,4.871,7.467,5.417c2.511-0.961,4.498-1.77,7.26-5.264c3.494,0.371,7.284,1.048,11.371,2.096
	c0.274,1.18,0.944,12.028,2.009,32.545C481.2,222.368,485.561,242.615,482.159,242.594L482.159,242.594z"/>
<path fill="#252433" d="M462.547,293.857c0.023-4.303-1.347-14.918-2.945-25.752c1.097-4.311,2.991-8.541,5.686-12.69
	C468.697,264.561,467.783,277.374,462.547,293.857z"/>
<path fill="#F17B1C" d="M426.379,212.561c-0.526,1.594,0.959,3.758,2.397,6.793c1.979,4.15,4.62,9.291,7.923,15.42
	c-0.473,1.733-0.975,3.139-1.507,4.217c-8.312-6.247-13.678-11.577-17.103-15.661c-4.795-5.724-5.206-11.511-4.314-14.022
	c7.124-20.037,17.146-30.826,30.07-32.37l-1.553,23.829C432.429,206.432,427.124,210.361,426.379,212.561L426.379,212.561z"/>
<path fill="#FFB27D" d="M435.717,235.232c2.983-2.649,5.084-3.232,6.302-1.746c1.826,2.228,2.169,5.722,0.754,5.481
	c-1.416-0.239-4.315-1.507-4.727-0.874c-0.434,0.635-2.284,1.857-2.854,0.896C434.811,238.335,434.986,237.082,435.717,235.232
	L435.717,235.232z"/>
<path fill="#FFB27D" d="M436.699,234.773c-0.473,1.733-0.976,3.139-1.507,4.216c-8.313-6.246-13.678-11.576-17.103-15.66
	c2.58-0.175,6.348-1.05,10.687-3.976C430.754,223.503,433.395,228.645,436.699,234.773L436.699,234.773z"/>
<path fill="#F17B1C" d="M507.526,211.73c0.067,1.857-0.32,5.877-5.139,11.599c-3.401,4.085-8.767,9.414-17.079,15.661
	c-0.531-1.078-1.034-2.483-1.507-4.217c3.288-6.129,5.93-11.27,7.923-15.42c1.439-3.035,2.467-4.455,2.147-5.592
	c-1.073-3.625-10.001-8.671-13.769-11.4c-0.821-0.598-1.462-1.129-1.918-1.596l0.365-23.13c3.273,0.771,5.921,2.126,7.946,4.063
	C498.849,193.493,507.16,202.973,507.526,211.73L507.526,211.73z"/>
<path fill="#FFB27D" d="M485.31,238.99c-0.57,0.961-2.442-0.262-2.854-0.896c-0.411-0.633-3.312,0.635-4.728,0.874
	c-1.414,0.24-1.072-3.254,0.755-5.481c1.217-1.486,3.317-0.903,6.301,1.746C485.5,237.082,485.675,238.335,485.31,238.99
	L485.31,238.99z"/>
<path fill="#FFB27D" d="M491.728,219.354c4.315,2.926,8.082,3.801,10.663,3.976c-3.425,4.084-8.768,9.414-17.078,15.66
	c-0.533-1.077-1.035-2.482-1.508-4.216C487.093,228.645,489.734,223.503,491.728,219.354L491.728,219.354z"/>
<path fill="#2E2D40" d="M459.921,180.802c-2.313-0.058-5.229-1.819-8.745-5.285c0.243-0.961,0.808-1.617,1.689-1.966
	L459.921,180.802z"/>
<path fill="#2E2D40" d="M459.92,180.803l6.827-7.514c0.944,0.597,1.408,1.383,1.393,2.359
	C464.623,179.216,461.884,180.934,459.92,180.803z"/>
<path fill="#2E2D40" d="M460.901,180.213c2.634,29.953,3.949,45.839,3.949,47.659c0,1.683-1.803,5.024-3.195,7.317
	c-0.708,1.18-2.466,1.18-3.197,0c-0.982-1.639-2.237-3.976-3.174-6.662c-1.202-3.494-0.068-19.586,3.403-48.271L460.901,180.213z"/>
<path fill="#2E2D40" d="M457.318,178.225c2.1-0.291,3.79-0.349,5.067-0.175c0.39,0.044,0.595,0.634,0.411,1.093
	c-0.548,1.354-1.643,3.691-2.785,3.691C458.414,182.834,455.902,178.378,457.318,178.225L457.318,178.225z"/>
<path fill="#FFFFFF" d="M462.659,163.744c-0.533,0.786-1.386,1.201-2.559,1.245c-1.156,0.029-2.069-0.386-2.739-1.245
	C458.944,163.424,460.71,163.424,462.659,163.744z"/>
<path fill="#252433" d="M132.225,161.276c2.709-0.859,5.008-0.742,6.895,0.35c11.714,0.459,12.147,11.947,10.777,16.228
	c-1.94,6.008,4.91,10.748-2.694,13.172c-8.79,2.817-16.165-1.639-15.663-0.176C103.707,192.947,122.955,164.225,132.225,161.276
	L132.225,161.276z"/>
<path fill="#3F3D56" d="M145.832,193.361c2.268,0.424,4.217,1.559,5.846,3.408c2.625,2.992,8.836,19.877,9.955,20.422
	c1.096,0.524-11.691,7.449-14.111,4.521c-1.355-1.615-2.405-3.123-3.151-4.521L145.832,193.361z"/>
<path fill="#1A1A23" d="M102.451,335.073l5.868,1.311c0.274,2.593,0.358,4.856,0.251,6.793c-0.182,2.927,0.868,6.072,3.608,6.64
	c1.842,0.379,2.382,1.194,1.621,2.447c-3.881,0-6.34,0-7.375,0c-1.552,0-3.265-1.465-3.699-4.129
	c-0.434-2.687-3.63-4.128-4.315-6.334c-0.457-1.457,0.495-3.211,2.854-5.264L102.451,335.073z"/>
<path fill="#1A1A23" d="M138.299,342.674c0.959,3.975,6.531,5.744,9.727,6.247c2.116,0.32,3.174,1.208,3.174,2.664l-19.819,0.044
	c-1.02-0.495-1.111-5.089-0.274-13.781C135.278,338.415,137.675,340.023,138.299,342.674z"/>
<path fill="#3F3D56" d="M124.165,192.62c9.224-0.626,16.447-0.379,21.668,0.741c2.146,3.656,3.927,8.111,5.343,13.369
	c1.4,5.271,0.35,12.58-3.151,21.929l-11.53,3.298l-3.676-0.852l-10.389-2.446c-0.898-0.277-1.743-1.296-2.535-3.058
	c-0.479-1.049-3.836-5.287-4.041-8.453c-0.183-3.189-0.183-6.108,0-8.758L124.165,192.62z"/>
<path fill="#252433" d="M121.951,208.674c-2.131,9.479,2.42,15.712,13.654,18.697l-2.785,3.734l-10.389-2.446
	c-0.898-0.276-1.743-1.296-2.535-3.058c-0.479-1.049-4.817-5.177-5.023-8.344L121.951,208.674z"/>
<path fill="#252433" d="M147.295,230.8c3.806,11.343,5.83,18.944,6.074,22.804c0.365,5.787-10.914,82.278-11.371,84.942
	c-0.289,1.675-1.522,3.052-3.699,4.129c-1.004,0.567-2.222,0.655-3.653,0.263c-1.979-0.539-3.28-1.129-3.904-1.771
	c-2.969-36.358-3.532-61.033-1.69-74.022c1.827-13.002,2.755-25.117,2.786-36.345H147.295z"/>
<path fill="#3E3C55" d="M143.276,231.957c2.436,9.697,2.9,15.77,1.393,18.216c-9.43,15.246-13.768,41.194-14.248,45.126
	c-0.708,5.549-14.407,32.26-18.7,40.538c-0.776,1.486-2.489,2.272-4.178,1.901c-0.845-0.197-1.735-0.415-2.375-0.635
	c-1.37-0.465-2.275-1.143-2.717-2.03c0-22.978,6.371-37.175,8.106-44.536c1.735-7.383,2.192-33.941,2.991-41.5
	c0.548-5.038,3.729-11.285,9.544-18.74L143.276,231.957z"/>
<path fill="#252433" d="M147.867,232.547c-6.363,2.258-15.032,2.061-26.007-0.59c-0.015-1.121,0.175-2.221,0.571-3.298
	c8.981,0.961,15.29,1.405,18.928,1.333c3.03-0.059,5.313-0.663,6.85-1.813C148.803,229.605,148.689,231.063,147.867,232.547z"/>
<path fill="#FFFFFF" d="M140.172,231.805c0-1.486,1.119-2.709,2.489-2.709s2.488,1.223,2.488,2.709c0,1.463-1.118,2.687-2.488,2.687
	S140.172,233.268,140.172,231.805z M140.994,231.805c0,1.049,0.753,1.899,1.667,1.899c0.913,0,1.666-0.851,1.666-1.899
	s-0.753-1.923-1.666-1.923C141.747,229.882,140.994,230.756,140.994,231.805z"/>
<path fill="#F17B1C" d="M142.934,211.994l24.773,0.219l-12.193,27.389l-24.75-0.218L142.934,211.994z"/>
<path fill="#FFB27D" d="M134.006,226.999l1.804-2.142c0.822-0.698,1.529-1.105,2.123-1.223c0.891-0.175,2.763-1.223,2.946-0.917
	c0.121,0.189-0.358,0.983-1.439,2.38h-0.091c1.872,1.355,6.598,0.176,7.169,0.721c0.708,0.656-0.959,2.098-1.872,2.906
	c-0.891,0.808-3.471,2.141-5.48,1.551c-0.974-0.291-2.23-0.582-3.767-0.875L134.006,226.999z"/>
<path fill="#FFB27D" d="M164.487,220.534c-0.936,0.415-2.192-3.582-1.21-4.39c0.67-0.539,1.522-0.248,2.557,0.873
	C166.382,217.52,165.423,220.141,164.487,220.534L164.487,220.534z"/>
<path fill="#3F3D56" d="M129.325,206.205c-9.863,9.436-12.192,11.205-12.261,13.236c-0.015,0.728,5.868,2.897,17.65,6.509
	c1.126,0.786,1.758,2.017,1.895,3.69c-25.093,4.457-31.098-2.555-31.6-4.586c-1.256-5.068,4.566-17.168,7.74-24.529
	c2.101-4.906,5.906-7.543,11.416-7.906C129.402,199.958,131.122,204.486,129.325,206.205L129.325,206.205z"/>
<path fill="#FFB27D" d="M129.622,192.971c-0.251-0.307,0.069-1.312,0.457-3.168c0.343-1.682,0.959-4.281,0.936-7.207l0.525,0.086
	l8.791,1.42c-0.137,1.5-0.206,2.957-0.206,4.369c0,0.014-0.007,0.028-0.022,0.043c0,1.836,0.525,4.609-0.115,4.98
	C136.655,195.35,130.559,194.171,129.622,192.971z"/>
<path fill="#E8945B" d="M140.33,184.102c-0.122,2.111-0.183,3.873-0.183,5.285c-4.932-0.109-7.558-4.674-8.608-6.705L140.33,184.102
	z"/>
<path fill="#FFB27D" d="M140.857,187.88c-7.687-1.049-11.15-3.853-10.389-8.409c1.142-6.859,0.411-11.664,7.809-10.943
	c7.398,0.699,8.402,3.538,8.585,5.897C147.067,176.806,143.871,188.098,140.857,187.88L140.857,187.88z"/>
<path fill="#252433" d="M143.526,169.14c-2.983,5.038-6.149,7.71-9.498,8.016c-3.349,0.291-5.655-0.08-6.919-1.114
	c2.786-1.5,4.704-3.844,5.754-7.033C138.815,166.315,142.369,166.358,143.526,169.14L143.526,169.14z"/>
<path fill="#252433" d="M147.158,170.581c1.43,2.33,1.058,5.191-1.119,8.584c0.616-2.556,0.16-4.784-0.503-6.531
	c-0.471-1.179-1.438-2.162-2.899-2.949C144.128,167.807,145.635,168.105,147.158,170.581L147.158,170.581z"/>
<path fill="#1C3559" d="M406.24,351.825H196.521V82.295H406.24V351.825z"/>
<path fill="#F4F4F4" enable-background="new    " d="M398.524,345.469H204.24V88.65h194.284V345.469z"/>
<path fill="#F17B1C" d="M341.121,77.992c1.964,0,3.562,1.507,3.562,3.386v7.688c0,6.116-5.57,11.074-12.443,11.074h-66.74
	c-6.873,0-12.421-4.958-12.421-11.074v-7.295c0-2.097,1.758-3.779,3.95-3.779H341.121z"/>
<path fill="#3F3D56" d="M259.791,273.129h-39.227v-37.525h39.227V273.129z M222.414,271.359h35.551v-33.985h-35.551V271.359z"/>
<path fill="#2E2D40" d="M241.159,265.593c-0.822,0-1.599-0.349-2.124-0.961l-12.124-14.022c-0.959-1.113-0.799-2.795,0.388-3.734
	c1.165-0.918,2.923-0.766,3.882,0.371l9.612,11.096l17.376-27.871c0.776-1.266,2.466-1.681,3.79-0.938
	c1.325,0.765,1.736,2.381,0.959,3.647l-19.385,31.104c-0.456,0.742-1.256,1.223-2.169,1.287
	C241.303,265.586,241.235,265.593,241.159,265.593L241.159,265.593z"/>
<path fill="#F17B1C" d="M371.078,258.67h-95.486v-3.08h95.486V258.67z"/>
<path fill="#3F3D56" d="M371.078,272.452h-95.486v-3.101h95.486V272.452z"/>
<path fill="#F17B1C" d="M371.079,265.57h-26.601v-3.1h26.601V265.57z"/>
<path fill="#F17B1C" d="M334.683,265.57h-59.091v-3.1h59.091V265.57z"/>
<path fill="#3F3D56" d="M371.078,308.12h-95.486v-3.08h95.486V308.12z"/>
<path fill="#3F3D56" d="M371.078,321.88h-95.486v-3.079h95.486V321.88z"/>
<path fill="#3F3D56" d="M371.079,315h-26.601v-3.08h26.601V315z"/>
<path fill="#3F3D56" d="M334.683,315h-59.091v-3.08h59.091V315z"/>
<path fill="#3F3D56" d="M383.957,159.638h-73.818v-3.079h73.818V159.638z"/>
<path fill="#3F3D56" d="M383.957,173.399h-73.818v-3.08h73.818V173.399z"/>
<path fill="#3F3D56" d="M385.235,166.518h-20.55v-3.08h20.55V166.518z"/>
<path fill="#3F3D56" d="M355.827,166.518h-45.688v-3.08h45.688V166.518z"/>
<path fill="#F17B1C" d="M383.957,120.89h-73.818v-3.079h73.818V120.89z"/>
<path fill="#F17B1C" d="M383.957,134.651h-73.818v-3.08h73.818V134.651z"/>
<path fill="#3F3D56" d="M385.235,127.77h-20.55v-3.08h20.55V127.77z"/>
<path fill="#3F3D56" d="M355.827,127.77h-45.688v-3.08h45.688V127.77z"/>
<path opacity="0.3" fill="#F17B1C" enable-background="new    " d="M380.21,188.993h-65.05c-2.774,0-5.023,2.151-5.023,4.805v23.765
	c0,2.653,2.249,4.806,5.023,4.806h65.05c2.775,0,5.024-2.152,5.024-4.806v-23.765C385.234,191.145,382.985,188.993,380.21,188.993z"
	/>
<g opacity="0.5">
	<path opacity="0.5" fill="#F99746" enable-background="new    " d="M378.135,200.329h-61.945v-3.08h61.945V200.329z"/>
	<path opacity="0.5" fill="#F99746" enable-background="new    " d="M378.135,214.089h-61.945v-3.079h61.945V214.089z"/>
	<path opacity="0.5" fill="#F99746" enable-background="new    " d="M379.207,207.209h-17.262v-3.08h17.262V207.209z"/>
	<path opacity="0.5" fill="#F99746" enable-background="new    " d="M354.526,207.209h-38.337v-3.08h38.337V207.209z"/>
</g>
<path fill="#3F3D56" d="M259.791,334.047h-39.227v-37.525h39.227V334.047z M222.414,332.277h35.551V298.27h-35.551V332.277z"/>
<path fill="#2E2D40" d="M241.159,326.488c-0.822,0-1.599-0.35-2.124-0.961l-12.124-14c-0.959-1.137-0.799-2.797,0.388-3.735
	c1.165-0.94,2.923-0.765,3.882,0.349l9.612,11.118l17.376-27.893c0.776-1.245,2.466-1.66,3.79-0.917
	c1.325,0.742,1.736,2.381,0.959,3.648L243.533,325.2c-0.456,0.741-1.256,1.223-2.169,1.288
	C241.303,326.488,241.235,326.488,241.159,326.488L241.159,326.488z"/>
<path fill="#3F3D56" d="M245.569,184.275c-23.913,7.601-41.685,24.084-53.314,49.451l-6.325-10.158l-14.887,2.447
	c14.598-28.19,36.943-47.572,67.037-58.144L245.569,184.275z"/>
<path fill="#3F3D56" d="M223.102,170.122c31.007,7.761,55.202,25.002,72.586,51.722l-15.093-1.07l-5.251,10.681
	c-14.126-24.171-33.473-38.937-58.041-44.295L223.102,170.122z"/>
<path fill="#F17B1C" d="M235.521,213.282c31.892,0,57.744-24.732,57.744-55.239s-25.852-55.238-57.744-55.238
	c-31.891,0-57.744,24.731-57.744,55.238S203.63,213.282,235.521,213.282z"/>
<g opacity="0.9">
	<path opacity="0.9" fill="#EBF2FF" enable-background="new    " d="M235.524,207.602c-28.563,0-51.807-22.234-51.807-49.559
		s23.244-49.56,51.807-49.56c28.564,0,51.808,22.236,51.808,49.56S264.088,207.602,235.524,207.602z M235.524,109.991
		c-27.696,0-50.232,21.558-50.232,48.052s22.536,48.053,50.232,48.053c27.696,0,50.232-21.559,50.232-48.053
		S263.22,109.991,235.524,109.991L235.524,109.991z"/>
</g>
<path opacity="0.6" fill="#FFFFFF" d="M232.5,117l8.868,27.294h28.699l-23.218,16.868l8.869,27.294L232.5,171.588l-23.218,16.868
	l8.869-27.294l-23.218-16.868h28.699L232.5,117z"/>
</svg>
